<?xml version="1.0" encoding="UTF-8"?>
<svg id="Layer_2" data-name="Layer 2" xmlns="http://www.w3.org/2000/svg" viewBox="0 0 1235.49 204.35">
  <defs>
    <style>
      .cls-1 {
        fill: #013841;
      }
    </style>
  </defs>
  <g id="Layer_1-2" data-name="Layer 1">
    <g>
      <polygon class="cls-1" points="34.1 0 0 0 0 204.35 34.1 204.35 136.28 204.35 136.28 195.23 34.1 195.23 34.1 0"/>
      <path class="cls-1" d="M309.72,147.56c0,13.18-5.11,24.42-15.34,33.72-10.23,9.3-22.56,13.94-37.02,13.94h-13.56c-14.45,0-26.77-4.65-36.95-13.94-10.18-9.3-15.28-20.54-15.28-33.72V0h-34.1v147.56c0,9.3,3.08,17.88,9.25,25.73,6.17,7.86,14.45,14.37,24.85,19.52,15.38,7.69,32.79,11.54,52.23,11.54h13.56c18.51,0,33.93-6.51,46.27-19.52,10.06-10.56,15.08-22.99,15.08-37.27V0h-9v147.56Z"/>
      <polygon class="cls-1" points="538.33 0 526.41 0 455.54 84.3 396.47 0 354.89 0 432.85 111.3 354.89 204.35 366.8 204.35 438.3 119.04 498.01 204.35 539.59 204.35 461 92.04 538.33 0"/>
      <path class="cls-1" d="M724.62,147.56c0,13.18-5.11,24.42-15.34,33.72-10.23,9.3-22.57,13.94-37.02,13.94h-13.56c-14.45,0-26.77-4.65-36.95-13.94-10.18-9.3-15.28-20.54-15.28-33.72V0h-34.1v147.56c0,9.3,3.08,17.88,9.25,25.73,6.17,7.86,14.45,14.37,24.85,19.52,15.38,7.69,32.79,11.54,52.23,11.54h13.56c18.51,0,33.93-6.51,46.27-19.52,10.06-10.56,15.09-22.99,15.09-37.27V0h-9v147.56Z"/>
      <path class="cls-1" d="M913.07,82.84c5.92-8.75,8.87-18.61,8.87-29.6,0-18.85-7.86-33.59-23.58-44.24-8.96-6-18.89-9-29.79-9h-102.18v9h85.19c2.03,0,4.31.3,6.85.89,8.37,2.03,15.38,7.08,21.04,15.15,5.66,8.07,8.49,17.47,8.49,28.21s-2.83,20.41-8.49,28.52c-5.66,8.11-12.68,13.14-21.04,15.09-2.2.51-4.48.76-6.85.76h-51.09v9.13h51.09c2.37,0,4.65.25,6.85.76,8.37,2.03,15.38,7.1,21.04,15.21,5.66,8.11,8.49,17.54,8.49,28.27v53.37h33.97v-53.37c0-10.9-2.96-20.73-8.87-29.47-5.92-8.75-13.56-15.19-22.95-19.33,9.38-4.14,17.03-10.58,22.95-19.33Z"/>
      <rect class="cls-1" x="968.94" width="34.1" height="204.35"/>
      <polygon class="cls-1" points="1187.83 102.18 1140.16 0 1130.15 0 1116.45 29.54 1082.48 102.18 1034.94 204.35 1044.96 204.35 1092.5 102.18 1121.4 40.31 1150.3 102.18 1197.97 204.35 1235.49 204.35 1187.83 102.18"/>
    </g>
  </g>
</svg>